<svg xmlns="http://www.w3.org/2000/svg" aria-hidden="true" style="position:absolute;width:0;height:0;overflow:hidden">
  <defs>
    <symbol id="icon-logo" viewBox="0 0 32 32">
      <path d="M17.483 3.624a5.36 5.36 0 0 0-1.817-1.707c-2.011-1.153-4.601-.951-6.992.388C4.235 4.792 1.329 9.466 1.329 15c0 7.387 5.347 13.351 12.329 14.48a14.67 14.67 0 0 0 2.337.187 14.625 14.625 0 0 0 10.426-4.32 14.62 14.62 0 0 0 4.24-10.459c-.031-2.576-1.064-5.737-2.697-8.264-1.627-2.517-4.128-4.811-7.236-4.781-1.517.003-2.553.837-3.245 1.784v-.001zm8.873 5.526a6.332 6.332 0 0 0-1.684-.044l-1.547-2.6-2.291 1.36 1.189 2a9.055 9.055 0 0 0-1.42.833 7.286 7.286 0 0 0-.024-.077c-.356-1.08-1.044-1.967-1.961-2.848l.005-.027c.092-.431.239-.987.459-1.527.497-1.221 1.075-1.716 1.653-1.716h.015c1.721-.019 3.515 1.303 4.975 3.561.227.351.437.712.632 1.083l-.001.001zm-8.215 3.996c-.44.011-.892.06-1.333.156a5.013 5.013 0 0 0-1.416-1.527c-1.053-.74-2.496-1.107-4.056-.524a18.259 18.259 0 0 0-.432-.241l4.311-4.225-1.867-1.904-5.113 5.012c-1.08-.313-2.089-.425-2.996-.3a11.607 11.607 0 0 1 4.74-4.963c1.819-1.019 3.383-.963 4.361-.401.933.535 1.708 1.748 1.513 3.916l-.06.671.504.447c1.096.969 1.552 1.596 1.749 2.195.139.42.184.928.095 1.689zm-3.746 1.34c-1.139.953-1.903 2.291-2.347 3.736l-3.965-4.353-1.972 1.797 5.451 5.984c-.007 1.589.197 3.216.493 4.687A11.933 11.933 0 0 1 3.995 15c0-1.387.385-2.143.839-2.473.428-.315 1.368-.572 3.293.139.696.257 1.501.652 2.423 1.225l.669.416.688-.387c.831-.467 1.465-.301 1.952.04.213.149.396.336.536.527zm2.353 12.49 9.723-10.716-1.975-1.792-3.909 4.308.009-1.352-2.667-.019-.031 4.333-3.311 3.649c-.251-1.361-.4-2.824-.352-4.196.085-2.34 1.02-4.263 2.403-5.024.573-.316 1.585-.44 2.385-.299l1.187.207.327-1.159c.171-.604.623-1.251 1.329-1.827a6.365 6.365 0 0 1 2.445-1.221c1.068-.261 1.979-.125 2.579.288.524.36 1.051 1.096 1.1 2.605v.024l.004.213a11.947 11.947 0 0 1-11.246 11.976z"/>
    </symbol>
    <symbol id="icon-facebook" viewBox="0 0 32 32">
      <path d="M19.519 4.64h.96v3.6h-1.2c-.48 0-.96 0-1.2.24s-.24.48-.24 1.04v1.28h2.64v3.04h-2.64v13.2h-4.08V13.76h-2.16v-3.04h2.16V9.68c0-1.76.24-3.04.72-3.6.72-1.04 2.16-1.52 4.32-1.52.24.08.48.08.72.08z"/>
    </symbol>
    <symbol id="icon-instagram" viewBox="0 0 32 32">
      <path d="M28.715 10.756a9.264 9.264 0 0 0-.596-3.145 6.547 6.547 0 0 0-3.743-3.737 9.42 9.42 0 0 0-3.108-.596C19.9 3.217 19.467 3.2 15.995 3.2s-3.917 0-5.274.078a9.418 9.418 0 0 0-3.106.596 6.541 6.541 0 0 0-3.743 3.737 9.288 9.288 0 0 0-.596 3.101c-.061 1.367-.08 1.8-.08 5.265s0 3.909.08 5.265a9.34 9.34 0 0 0 .596 3.104 6.545 6.545 0 0 0 3.744 3.735 9.37 9.37 0 0 0 3.106.639c1.369.061 1.803.079 5.274.079s3.917 0 5.274-.079a9.357 9.357 0 0 0 3.108-.595 6.555 6.555 0 0 0 3.743-3.737 9.346 9.346 0 0 0 .596-3.104c.061-1.365.08-1.798.08-5.265-.003-3.466-.003-3.906-.082-5.264zM15.988 22.531c-3.631 0-6.572-2.936-6.572-6.561s2.941-6.561 6.572-6.561c3.628 0 6.572 2.936 6.572 6.561s-2.944 6.561-6.572 6.561zm6.834-11.835a1.53 1.53 0 1 1 0-3.06 1.53 1.53 0 1 1 0 3.06z"/>
      <path d="M15.994 19.976a4.004 4.004 0 1 0 0-8.009 4.004 4.004 0 0 0 0 8.009z"/>
    </symbol>
    <symbol id="icon-youtube" viewBox="0 0 32 32">
      <path d="M24.239 6c-1.36-.08-4.16-.16-8.4-.16h-.56c-4.08 0-6.8.08-8.16.24-1.84.16-3.12.64-3.84 1.28-.64.56-1.12 1.6-1.28 2.96-.08.88-.16 2.72-.16 5.52v.4c0 2.64.08 4.48.24 5.36.24 1.28.64 2.24 1.44 2.8.8.64 2.16 1.04 4.08 1.2 1.36.08 4.16.16 8.4.16h.56c4.08 0 6.8-.08 8.16-.24 1.84-.16 3.12-.64 3.84-1.28.64-.56 1.12-1.6 1.28-2.96.08-.88.16-2.72.16-5.52v-.4c0-2.64-.08-4.48-.24-5.36-.24-1.28-.64-2.24-1.44-2.8-.8-.64-2.16-1.04-4.08-1.2zm-3.12 9.84-8.8 5.28V10.56l8.8 5.28z"/>
    </symbol>
    <symbol id="icon-shopping-cart" viewBox="0 0 32 32" >
      <path stroke="none" d="M4.8 1.6a1.6 1.6 0 0 0 0 3.2h1.952l.488 1.955.016.067 2.173 8.688L8 16.937c-2.016 2.016-.589 5.462 2.262 5.462H24a1.6 1.6 0 0 0 0-3.2H10.262l1.6-1.6H22.4a1.602 1.602 0 0 0 1.431-.885l4.8-9.6A1.602 1.602 0 0 0 27.2 4.799H10.048L9.552 2.81A1.601 1.601 0 0 0 8 1.598H4.8zm20.8 24.8a2.4 2.4 0 1 1-4.799 0 2.4 2.4 0 0 1 4.799 0zm-15.2 2.4a2.4 2.4 0 1 0 0-4.799 2.4 2.4 0 0 0 0 4.799z" />
    </symbol> 
    <symbol id="icon-check" viewBox="0 0 32 32" >
      <path fill="none" stroke-linejoin="round" stroke-linecap="round" stroke-miterlimit="4" stroke-width="3.5556" d="M26.667 8l-14.667 14.667-6.667-6.667"></path>
    </symbol>
    <symbol id="icon-baseline-search" viewBox="0 0 32 32">
      <path d="M20.667 18.667h-1.053l-.373-.36a8.625 8.625 0 0 0 2.093-5.64 8.668 8.668 0 0 0-5.35-8.007A8.66 8.66 0 0 0 6.54 6.539a8.67 8.67 0 0 0-1.879 9.444 8.671 8.671 0 0 0 8.007 5.35 8.63 8.63 0 0 0 5.64-2.093l.36.373v1.053l6.667 6.653 1.987-1.987-6.653-6.667zm-8 0c-3.32 0-6-2.68-6-6s2.68-6 6-6 6 2.68 6 6-2.68 6-6 6z"/>
    </symbol>
    <symbol id="icon-close" viewBox="0 0 32 32">
      <path d="M31 4.489 27.511 1 16 12.511 4.489 1 1 4.489 12.511 16 1 27.511 4.489 31 16 19.489 27.511 31 31 27.511 19.489 16 31 4.489z"/>
    </symbol>
    <symbol id="icon-down" viewBox="0 0 32 32">
      <path stroke-linecap="round" stroke-linejoin="round" stroke-width="5.333" d="M2.667 9.333 16 22.666 29.333 9.333"/>
    </symbol>
    <symbol id="icon-agree" viewBox="0 0 32 32">
      <path stroke-linecap="round" stroke-linejoin="round" stroke-width="4.571" d="M29.714 6.857 10.857 25.714l-8.571-8.571"/>
    </symbol>
    <symbol id="icon-more" viewBox="0 0 32 32">
      <path stroke-linecap="round" stroke-linejoin="round" stroke-width="4.8" d="M9.6 3.2 22.4 16 9.6 28.8"/>
    </symbol>
    <symbol id="icon-less" viewBox="0 0 32 32">
      <path stroke-linecap="round" stroke-linejoin="round" stroke-width="4.8" d="M22.4 28.8 9.6 16 22.4 3.2"/>
    </symbol>
    <symbol id="icon-minus" viewBox="0 0 32 32">
      <path stroke-linecap="round" stroke-linejoin="round" stroke-width="3.692" d="M3.077 16h25.846"/>
    </symbol>
  </defs>
</svg>
